# xmcd CD database file
#
# Track frame offsets:
#	150
#	48057
#	74250
#	107579
#	149804
#	183919
#	205289
#	237328
#	270103
#	298432
#
# Disc length: 4510 seconds
#
# Revision: 0
# Processed by: cddbd v1.5.2PL0 Copyright (c) Steve Scherf et al.
# Submitted via: CDex 1.70beta2
#
DISCID=98119c0a
DTITLE=The Cannonball Adderley Quintet - At The Lighthouse
DYEAR=2011
DGENRE=Jazz
TTITLE0=Sack O' Woe
TTITLE1=Big 'P'
TTITLE2=Blue Daniel
TTITLE3=Azule Serape
TTITLE4=Exodus
TTITLE5=What Is This Thing Called Love?
TTITLE6=Our Delight
TTITLE7=Blue Daniel
TTITLE8=The Old Country
TTITLE9=Dis Here
EXTD=YEAR: 2011
EXTT0=
EXTT1=
EXTT2=
EXTT3=
EXTT4=
EXTT5=
EXTT6=
EXTT7=
EXTT8=
EXTT9=
PLAYORDER=
